<svg width="100" height="100" viewBox="0 0 100 100" fill="none" xmlns="http://www.w3.org/2000/svg">
    <rect width="100" height="100" rx="26" fill="#D8FF4A" />
    <path d="M44.6204 62.6926L45.6569 60.1242H54.4161L55.4526 62.6926H50.0365H44.6204ZM42.6204 67.8147L43.6277 65.2609H56.4161L57.5255 67.8147H42.6204ZM19.7737 80H17L40.3431 21H43.1314L44.3161 24L66.4307 80H63.6861L41.7299 24.4586L19.7737 80ZM42.0511 30.5585L43.5109 33.8274L25.2628 80H22.5182L42.0511 30.5585ZM44.9124 37.3297L46.2555 40.8466L30.8248 80H28.0511L44.9124 37.3297ZM47.6131 44.3782L48.9708 47.9827L36.3139 80H33.5693L47.6131 44.3782ZM83 80H80.2263L56.9124 21H59.6569L83 80ZM54.1387 21L77.4818 80H74.7372L51.3942 21H54.1387ZM48.6204 21L71.9635 80H69.1752L45.8759 21H48.6204Z" fill="#0D1206" />
    <path d="M40.5 21H59.5L60 24H40L40.5 21Z" fill="#0D1206" />
</svg>
